<svg version="1.1" viewBox="0.0 0.0 666.2493438320209 612.1286089238845" fill="none" stroke="none" stroke-linecap="square" stroke-miterlimit="10" xmlns:xlink="http://www.w3.org/1999/xlink" xmlns="http://www.w3.org/2000/svg"><clipPath id="p.0"><path d="m0 0l666.2493 0l0 612.1286l-666.2493 0l0 -612.1286z" clip-rule="nonzero"/></clipPath><g clip-path="url(#p.0)"><path fill="#000000" fill-opacity="0.0" d="m0 0l666.2493 0l0 612.1286l-666.2493 0z" fill-rule="evenodd"/><path fill="#cfe2f3" d="m217.55118 390.32285l230.99213 0l0 142.0787l-230.99213 0z" fill-rule="evenodd"/><path fill="#cfe2f3" d="m399.17444 469.17523l-66.12601 -414.2677l-66.12598 414.2047z" fill-rule="evenodd"/><path fill="#cfe2f3" d="m286.77954 61.45669l0 0c0 -25.474678 20.714752 -46.125984 46.2677 -46.125984l0 0c12.270966 0 24.039337 4.8596888 32.716217 13.509988c8.67688 8.650301 13.551514 20.382624 13.551514 32.615997l0 0c0 25.474682 -20.714783 46.125988 -46.26773 46.125988l0 0c-25.552948 0 -46.2677 -20.651306 -46.2677 -46.125988z" fill-rule="evenodd"/><path fill="#cfe2f3" d="m333.25565 462.20096l-137.3145 -396.36224l7.0882416 419.35175z" fill-rule="evenodd"/><path fill="#cfe2f3" d="m151.5263 80.351715l0 0c-4.4402466 -25.082367 12.355988 -49.026222 37.515427 -53.480103l0 0c12.081985 -2.1388283 24.516174 0.5947914 34.567184 7.599497c10.050995 7.0047073 16.895493 17.706707 19.027771 29.751686l0 0c4.4402313 25.082367 -12.356003 49.026222 -37.51544 53.480103l0 0c-25.15944 4.4538803 -49.15471 -12.268814 -53.59494 -37.35118z" fill-rule="evenodd"/><path fill="#cfe2f3" d="m463.26382 485.25238l7.0992126 -419.41376l-137.30353 396.30023z" fill-rule="evenodd"/><path fill="#cfe2f3" d="m423.66516 64.22228l0 0c4.440216 -25.08237 28.435516 -41.80506 53.59494 -37.35118l0 0c12.082001 2.1388283 22.822083 8.974905 29.857605 19.00437c7.035492 10.029469 9.790131 22.43076 7.6578064 34.475735l0 0c-4.440216 25.082367 -28.435486 41.80506 -53.59494 37.35118l0 0c-25.159424 -4.4538803 -41.955658 -28.397736 -37.51541 -53.480103z" fill-rule="evenodd"/><path fill="#cfe2f3" d="m447.58987 532.40125l149.73782 -391.84042l-264.2498 325.69955z" fill-rule="evenodd"/><path fill="#cfe2f3" d="m553.98157 123.11249l0 0c12.729736 -22.063614 40.990234 -29.598549 63.121643 -16.829735l0 0c10.627869 6.131798 18.39209 16.221436 21.584595 28.049294c3.192505 11.827866 1.5517578 24.42508 -4.5612793 35.0204l0 0c-12.729675 22.063614 -40.990173 29.598541 -63.121643 16.829742l0 0c-22.131409 -12.768814 -29.75299 -41.00609 -17.023315 -63.069702z" fill-rule="evenodd"/><path fill="#cfe2f3" d="m333.04785 466.38754l-264.1288 -325.8634l149.52748 391.8423z" fill-rule="evenodd"/><path fill="#cfe2f3" d="m32.106285 169.29974l0 0c-12.719507 -22.06871 -5.0855064 -50.30181 17.051018 -63.060402l0 0c10.630333 -6.126892 23.251717 -7.7928925 35.087593 -4.631508c11.835876 3.1613922 21.91671 10.891205 28.024834 21.488976l0 0c12.719505 22.068718 5.0855026 50.301826 -17.051018 63.060417l0 0c-22.136528 12.758591 -50.39292 5.2112427 -63.112427 -16.857483z" fill-rule="evenodd"/><path fill="#cfe2f3" d="m217.55118 545.1732l230.99213 0l0 51.62207l-230.99213 0z" fill-rule="evenodd"/></g></svg>